<?xml version="1.0" encoding="UTF-8" standalone="no"?>
<svg xmlns="http://www.w3.org/2000/svg" viewBox="0 0 24 24"><title>User Smal Circle</title><g id="User_Smal_Circle" data-name="User Smal Circle"><path d="M12,0A12,12,0,1,0,24,12,12,12,0,0,0,12,0Zm0,5A3.5,3.5,0,1,1,8.5,8.5,3.5,3.5,0,0,1,12,5Zm7,12.56A1.43,1.43,0,0,1,17.57,19H6.43A1.43,1.43,0,0,1,5,17.56V17.1a3,3,0,0,1,1.63-2.67A12,12,0,0,1,12,13a12,12,0,0,1,5.37,1.43A3,3,0,0,1,19,17.1Z" style="fill:#303c42"/></g>
	<metadata>
		<rdf:RDF xmlns:rdf="http://www.w3.org/1999/02/22-rdf-syntax-ns#" xmlns:rdfs="http://www.w3.org/2000/01/rdf-schema#" xmlns:dc="http://purl.org/dc/elements/1.1/">
			<rdf:Description about="https://iconscout.com/legal#licenses" dc:title="user; symbol; person; 2" dc:description="user; symbol; person; 2" dc:publisher="Iconscout" dc:date="2017-02-21" dc:format="image/svg+xml" dc:language="en">
				<dc:creator>
					<rdf:Bag>
						<rdf:li>Alpár - Etele Méder</rdf:li>
					</rdf:Bag>
				</dc:creator>
			</rdf:Description>
		</rdf:RDF>
    </metadata></svg>
